<?xml version="1.0" standalone="no"?>
<!DOCTYPE svg PUBLIC "-//W3C//DTD SVG 20010904//EN"
 "http://www.w3.org/TR/2001/REC-SVG-20010904/DTD/svg10.dtd">
<svg version="1.0" xmlns="http://www.w3.org/2000/svg"
 width="121.000000pt" height="121.000000pt" viewBox="0 0 121.000000 121.000000"
 preserveAspectRatio="xMidYMid meet">
<metadata>
Created by potrace 1.14, written by Peter Selinger 2001-2017
</metadata>
<g transform="translate(0.000000,121.000000) scale(0.100000,-0.100000)"
fill="#000000" stroke="none">
<path d="M728 1023 c7 -3 16 -2 19 1 4 3 -2 6 -13 5 -11 0 -14 -3 -6 -6z"/>
<path d="M779 1008 c5 -13 12 -47 16 -75 l7 -53 -76 0 c-66 0 -76 2 -76 18 0
9 4 24 9 32 6 8 7 18 4 23 -7 12 -32 -31 -33 -55 0 -14 -13 -17 -97 -18 -54 0
-114 -4 -133 -9 -21 -5 90 -7 273 -6 l308 3 -5 -71 c-3 -40 -8 -151 -12 -249
l-7 -176 -30 -6 c-51 -10 -73 -7 -92 14 -10 11 -25 20 -34 20 -14 0 -14 -2 -1
-10 10 -7 -35 -8 -132 -3 -109 4 -148 3 -148 -5 0 -9 43 -12 149 -12 129 0
150 -2 155 -16 4 -9 5 -19 2 -21 -2 -2 -70 -1 -151 4 -157 9 -179 16 -160 59
4 11 7 22 7 26 -3 12 97 151 125 175 l26 21 -27 -1 c-15 -1 -26 -8 -26 -16 0
-8 -15 -32 -33 -55 -18 -23 -39 -53 -46 -68 -21 -41 -49 -68 -72 -68 -20 0
-20 0 -1 28 11 16 24 62 32 112 7 47 18 105 26 129 17 55 17 61 1 61 -14 0
-40 -67 -32 -81 5 -7 -28 -180 -40 -211 -10 -26 -28 -22 -22 5 17 67 19 100 8
93 -6 -4 -11 -13 -11 -19 0 -7 -7 -25 -15 -41 -8 -15 -12 -33 -9 -38 4 -6 1
-14 -7 -18 -9 -6 2 -13 34 -21 26 -6 47 -14 47 -18 0 -3 -26 -57 -57 -119
l-58 -113 -50 5 c-58 6 -42 -8 20 -18 50 -9 58 -1 111 111 21 45 45 83 52 83
24 0 40 -24 31 -46 -4 -12 -6 -24 -3 -26 2 -2 -3 -39 -11 -82 -18 -96 -18 -97
0 -90 8 3 17 22 20 42 14 86 38 172 51 183 11 9 44 10 130 3 63 -5 124 -6 134
-2 11 4 22 3 25 -2 4 -6 14 -57 24 -115 l18 -104 -31 -4 c-23 -3 -19 -4 15 -5
l46 -2 -9 58 c-16 93 -15 114 3 117 27 4 53 -63 40 -100 -10 -26 -9 -28 2 -13
13 16 15 16 25 -8 15 -32 15 -32 -5 -37 -14 -4 -12 -5 5 -6 12 0 22 5 22 12 0
6 -21 59 -45 117 -25 58 -45 106 -45 107 0 2 13 3 29 3 25 0 29 4 35 38 3 20
5 66 4 102 l-2 65 -6 -80 -6 -80 -1 110 c-1 61 3 135 8 165 5 30 12 86 15 123
8 87 -2 96 -102 97 l-71 0 -19 72 c-14 52 -24 74 -37 76 -14 3 -16 -1 -8 -20z
m198 -500 c-2 -13 -4 -3 -4 22 0 25 2 35 4 23 2 -13 2 -33 0 -45z m-32 -215
c5 -18 3 -22 -9 -17 -9 3 -16 9 -17 13 0 3 -3 17 -5 31 -4 22 -3 23 10 10 7
-8 17 -25 21 -37z"/>
<path d="M372 830 c0 -14 2 -19 5 -12 2 6 2 18 0 25 -3 6 -5 1 -5 -13z"/>
<path d="M286 763 c-11 -11 -6 -23 9 -23 8 0 15 4 15 9 0 13 -16 22 -24 14z"/>
<path d="M361 744 c0 -11 3 -14 6 -6 3 7 2 16 -1 19 -3 4 -6 -2 -5 -13z"/>
<path d="M391 693 c0 -18 4 -33 9 -33 6 0 10 -13 10 -29 0 -31 14 -49 25 -31
3 5 -2 24 -12 42 -10 18 -21 44 -24 58 -6 23 -7 22 -8 -7z"/>
<path d="M232 670 c0 -17 6 -43 14 -58 16 -31 19 -107 4 -97 -5 3 -10 3 -10
-2 1 -11 84 -73 98 -73 8 0 9 8 2 26 -12 30 -13 144 -2 144 6 0 7 32 3 72 -1
4 -7 5 -15 2 -11 -4 -14 -22 -12 -75 1 -38 -1 -69 -5 -69 -4 0 -5 -17 -3 -37
5 -35 4 -37 -10 -20 -8 11 -18 38 -21 60 -8 48 -33 148 -38 154 -2 2 -4 -10
-5 -27z"/>
<path d="M670 665 c0 -8 5 -15 10 -15 6 0 10 7 10 15 0 8 -4 15 -10 15 -5 0
-10 -7 -10 -15z"/>
<path d="M831 277 c2 -2 12 -9 22 -16 14 -11 17 -11 17 1 0 7 -10 14 -21 15
-12 1 -20 1 -18 0z"/>
<path d="M940 221 c0 -6 4 -13 10 -16 6 -3 7 1 4 9 -7 18 -14 21 -14 7z"/>
<path d="M451 204 c0 -11 3 -14 6 -6 3 7 2 16 -1 19 -3 4 -6 -2 -5 -13z"/>
<path d="M355 199 c-4 -6 -5 -12 -2 -15 2 -3 7 2 10 11 7 17 1 20 -8 4z"/>
<path d="M956 177 c3 -10 9 -15 12 -12 3 3 0 11 -7 18 -10 9 -11 8 -5 -6z"/>
<path d="M641 148 c-1 -16 -8 -28 -18 -31 -17 -4 -17 -5 0 -6 20 -1 31 19 24
46 -3 12 -5 9 -6 -9z"/>
</g>
</svg>
